<?xml version="1.0" encoding="utf-8" standalone="no"?>
<!DOCTYPE svg PUBLIC "-//W3C//DTD SVG 1.1//EN"
  "http://www.w3.org/Graphics/SVG/1.1/DTD/svg11.dtd">
<!-- Created with matplotlib (https://matplotlib.org/) -->
<svg height="578.16pt" version="1.1" viewBox="0 0 1152 578.16" width="1152pt" xmlns="http://www.w3.org/2000/svg" xmlns:xlink="http://www.w3.org/1999/xlink">
 <defs>
  <style type="text/css">
*{stroke-linecap:butt;stroke-linejoin:round;}
  </style>
 </defs>
 <g id="figure_1">
  <g id="patch_1">
   <path d="M 0 578.16 
L 1152 578.16 
L 1152 0 
L 0 0 
z
" style="fill:#ffffff;"/>
  </g>
  <g id="axes_1">
   <g id="patch_2">
    <path d="M 144 514.5624 
L 1036.8 514.5624 
L 1036.8 69.3792 
L 144 69.3792 
z
" style="fill:#ffffff;"/>
   </g>
   <g id="matplotlib.axis_1">
    <g id="xtick_1">
     <g id="line2d_1">
      <defs>
       <path d="M 0 0 
L 0 3.5 
" id="m1df5ceaf2c" style="stroke:#000000;stroke-width:0.8;"/>
      </defs>
      <g>
       <use style="stroke:#000000;stroke-width:0.8;" x="184.581818" xlink:href="#m1df5ceaf2c" y="514.5624"/>
      </g>
     </g>
     <g id="text_1">
      <!-- −20 -->
      <defs>
       <path d="M 10.59375 35.5 
L 73.1875 35.5 
L 73.1875 27.203125 
L 10.59375 27.203125 
z
" id="DejaVuSans-8722"/>
       <path d="M 19.1875 8.296875 
L 53.609375 8.296875 
L 53.609375 0 
L 7.328125 0 
L 7.328125 8.296875 
Q 12.9375 14.109375 22.625 23.890625 
Q 32.328125 33.6875 34.8125 36.53125 
Q 39.546875 41.84375 41.421875 45.53125 
Q 43.3125 49.21875 43.3125 52.78125 
Q 43.3125 58.59375 39.234375 62.25 
Q 35.15625 65.921875 28.609375 65.921875 
Q 23.96875 65.921875 18.8125 64.3125 
Q 13.671875 62.703125 7.8125 59.421875 
L 7.8125 69.390625 
Q 13.765625 71.78125 18.9375 73 
Q 24.125 74.21875 28.421875 74.21875 
Q 39.75 74.21875 46.484375 68.546875 
Q 53.21875 62.890625 53.21875 53.421875 
Q 53.21875 48.921875 51.53125 44.890625 
Q 49.859375 40.875 45.40625 35.40625 
Q 44.1875 33.984375 37.640625 27.21875 
Q 31.109375 20.453125 19.1875 8.296875 
z
" id="DejaVuSans-50"/>
       <path d="M 31.78125 66.40625 
Q 24.171875 66.40625 20.328125 58.90625 
Q 16.5 51.421875 16.5 36.375 
Q 16.5 21.390625 20.328125 13.890625 
Q 24.171875 6.390625 31.78125 6.390625 
Q 39.453125 6.390625 43.28125 13.890625 
Q 47.125 21.390625 47.125 36.375 
Q 47.125 51.421875 43.28125 58.90625 
Q 39.453125 66.40625 31.78125 66.40625 
z
M 31.78125 74.21875 
Q 44.046875 74.21875 50.515625 64.515625 
Q 56.984375 54.828125 56.984375 36.375 
Q 56.984375 17.96875 50.515625 8.265625 
Q 44.046875 -1.421875 31.78125 -1.421875 
Q 19.53125 -1.421875 13.0625 8.265625 
Q 6.59375 17.96875 6.59375 36.375 
Q 6.59375 54.828125 13.0625 64.515625 
Q 19.53125 74.21875 31.78125 74.21875 
z
" id="DejaVuSans-48"/>
      </defs>
      <g transform="translate(174.029474 529.160837)scale(0.1 -0.1)">
       <use xlink:href="#DejaVuSans-8722"/>
       <use x="83.789062" xlink:href="#DejaVuSans-50"/>
       <use x="147.412109" xlink:href="#DejaVuSans-48"/>
      </g>
     </g>
    </g>
    <g id="xtick_2">
     <g id="line2d_2">
      <g>
       <use style="stroke:#000000;stroke-width:0.8;" x="300.52987" xlink:href="#m1df5ceaf2c" y="514.5624"/>
      </g>
     </g>
     <g id="text_2">
      <!-- −10 -->
      <defs>
       <path d="M 12.40625 8.296875 
L 28.515625 8.296875 
L 28.515625 63.921875 
L 10.984375 60.40625 
L 10.984375 69.390625 
L 28.421875 72.90625 
L 38.28125 72.90625 
L 38.28125 8.296875 
L 54.390625 8.296875 
L 54.390625 0 
L 12.40625 0 
z
" id="DejaVuSans-49"/>
      </defs>
      <g transform="translate(289.977526 529.160837)scale(0.1 -0.1)">
       <use xlink:href="#DejaVuSans-8722"/>
       <use x="83.789062" xlink:href="#DejaVuSans-49"/>
       <use x="147.412109" xlink:href="#DejaVuSans-48"/>
      </g>
     </g>
    </g>
    <g id="xtick_3">
     <g id="line2d_3">
      <g>
       <use style="stroke:#000000;stroke-width:0.8;" x="416.477922" xlink:href="#m1df5ceaf2c" y="514.5624"/>
      </g>
     </g>
     <g id="text_3">
      <!-- 0 -->
      <g transform="translate(413.296672 529.160837)scale(0.1 -0.1)">
       <use xlink:href="#DejaVuSans-48"/>
      </g>
     </g>
    </g>
    <g id="xtick_4">
     <g id="line2d_4">
      <g>
       <use style="stroke:#000000;stroke-width:0.8;" x="532.425974" xlink:href="#m1df5ceaf2c" y="514.5624"/>
      </g>
     </g>
     <g id="text_4">
      <!-- 10 -->
      <g transform="translate(526.063474 529.160837)scale(0.1 -0.1)">
       <use xlink:href="#DejaVuSans-49"/>
       <use x="63.623047" xlink:href="#DejaVuSans-48"/>
      </g>
     </g>
    </g>
    <g id="xtick_5">
     <g id="line2d_5">
      <g>
       <use style="stroke:#000000;stroke-width:0.8;" x="648.374026" xlink:href="#m1df5ceaf2c" y="514.5624"/>
      </g>
     </g>
     <g id="text_5">
      <!-- 20 -->
      <g transform="translate(642.011526 529.160837)scale(0.1 -0.1)">
       <use xlink:href="#DejaVuSans-50"/>
       <use x="63.623047" xlink:href="#DejaVuSans-48"/>
      </g>
     </g>
    </g>
    <g id="xtick_6">
     <g id="line2d_6">
      <g>
       <use style="stroke:#000000;stroke-width:0.8;" x="764.322078" xlink:href="#m1df5ceaf2c" y="514.5624"/>
      </g>
     </g>
     <g id="text_6">
      <!-- 30 -->
      <defs>
       <path d="M 40.578125 39.3125 
Q 47.65625 37.796875 51.625 33 
Q 55.609375 28.21875 55.609375 21.1875 
Q 55.609375 10.40625 48.1875 4.484375 
Q 40.765625 -1.421875 27.09375 -1.421875 
Q 22.515625 -1.421875 17.65625 -0.515625 
Q 12.796875 0.390625 7.625 2.203125 
L 7.625 11.71875 
Q 11.71875 9.328125 16.59375 8.109375 
Q 21.484375 6.890625 26.8125 6.890625 
Q 36.078125 6.890625 40.9375 10.546875 
Q 45.796875 14.203125 45.796875 21.1875 
Q 45.796875 27.640625 41.28125 31.265625 
Q 36.765625 34.90625 28.71875 34.90625 
L 20.21875 34.90625 
L 20.21875 43.015625 
L 29.109375 43.015625 
Q 36.375 43.015625 40.234375 45.921875 
Q 44.09375 48.828125 44.09375 54.296875 
Q 44.09375 59.90625 40.109375 62.90625 
Q 36.140625 65.921875 28.71875 65.921875 
Q 24.65625 65.921875 20.015625 65.03125 
Q 15.375 64.15625 9.8125 62.3125 
L 9.8125 71.09375 
Q 15.4375 72.65625 20.34375 73.4375 
Q 25.25 74.21875 29.59375 74.21875 
Q 40.828125 74.21875 47.359375 69.109375 
Q 53.90625 64.015625 53.90625 55.328125 
Q 53.90625 49.265625 50.4375 45.09375 
Q 46.96875 40.921875 40.578125 39.3125 
z
" id="DejaVuSans-51"/>
      </defs>
      <g transform="translate(757.959578 529.160837)scale(0.1 -0.1)">
       <use xlink:href="#DejaVuSans-51"/>
       <use x="63.623047" xlink:href="#DejaVuSans-48"/>
      </g>
     </g>
    </g>
    <g id="xtick_7">
     <g id="line2d_7">
      <g>
       <use style="stroke:#000000;stroke-width:0.8;" x="880.27013" xlink:href="#m1df5ceaf2c" y="514.5624"/>
      </g>
     </g>
     <g id="text_7">
      <!-- 40 -->
      <defs>
       <path d="M 37.796875 64.3125 
L 12.890625 25.390625 
L 37.796875 25.390625 
z
M 35.203125 72.90625 
L 47.609375 72.90625 
L 47.609375 25.390625 
L 58.015625 25.390625 
L 58.015625 17.1875 
L 47.609375 17.1875 
L 47.609375 0 
L 37.796875 0 
L 37.796875 17.1875 
L 4.890625 17.1875 
L 4.890625 26.703125 
z
" id="DejaVuSans-52"/>
      </defs>
      <g transform="translate(873.90763 529.160837)scale(0.1 -0.1)">
       <use xlink:href="#DejaVuSans-52"/>
       <use x="63.623047" xlink:href="#DejaVuSans-48"/>
      </g>
     </g>
    </g>
    <g id="xtick_8">
     <g id="line2d_8">
      <g>
       <use style="stroke:#000000;stroke-width:0.8;" x="996.218182" xlink:href="#m1df5ceaf2c" y="514.5624"/>
      </g>
     </g>
     <g id="text_8">
      <!-- 50 -->
      <defs>
       <path d="M 10.796875 72.90625 
L 49.515625 72.90625 
L 49.515625 64.59375 
L 19.828125 64.59375 
L 19.828125 46.734375 
Q 21.96875 47.46875 24.109375 47.828125 
Q 26.265625 48.1875 28.421875 48.1875 
Q 40.625 48.1875 47.75 41.5 
Q 54.890625 34.8125 54.890625 23.390625 
Q 54.890625 11.625 47.5625 5.09375 
Q 40.234375 -1.421875 26.90625 -1.421875 
Q 22.3125 -1.421875 17.546875 -0.640625 
Q 12.796875 0.140625 7.71875 1.703125 
L 7.71875 11.625 
Q 12.109375 9.234375 16.796875 8.0625 
Q 21.484375 6.890625 26.703125 6.890625 
Q 35.15625 6.890625 40.078125 11.328125 
Q 45.015625 15.765625 45.015625 23.390625 
Q 45.015625 31 40.078125 35.4375 
Q 35.15625 39.890625 26.703125 39.890625 
Q 22.75 39.890625 18.8125 39.015625 
Q 14.890625 38.140625 10.796875 36.28125 
z
" id="DejaVuSans-53"/>
      </defs>
      <g transform="translate(989.855682 529.160837)scale(0.1 -0.1)">
       <use xlink:href="#DejaVuSans-53"/>
       <use x="63.623047" xlink:href="#DejaVuSans-48"/>
      </g>
     </g>
    </g>
   </g>
   <g id="matplotlib.axis_2">
    <g id="ytick_1">
     <g id="line2d_9">
      <defs>
       <path d="M 0 0 
L -3.5 0 
" id="me464796063" style="stroke:#000000;stroke-width:0.8;"/>
      </defs>
      <g>
       <use style="stroke:#000000;stroke-width:0.8;" x="144" xlink:href="#me464796063" y="494.3268"/>
      </g>
     </g>
     <g id="text_9">
      <!-- 0.00 -->
      <defs>
       <path d="M 10.6875 12.40625 
L 21 12.40625 
L 21 0 
L 10.6875 0 
z
" id="DejaVuSans-46"/>
      </defs>
      <g transform="translate(114.734375 498.126019)scale(0.1 -0.1)">
       <use xlink:href="#DejaVuSans-48"/>
       <use x="63.623047" xlink:href="#DejaVuSans-46"/>
       <use x="95.410156" xlink:href="#DejaVuSans-48"/>
       <use x="159.033203" xlink:href="#DejaVuSans-48"/>
      </g>
     </g>
    </g>
    <g id="ytick_2">
     <g id="line2d_10">
      <g>
       <use style="stroke:#000000;stroke-width:0.8;" x="144" xlink:href="#me464796063" y="443.57935"/>
      </g>
     </g>
     <g id="text_10">
      <!-- 0.25 -->
      <g transform="translate(114.734375 447.378569)scale(0.1 -0.1)">
       <use xlink:href="#DejaVuSans-48"/>
       <use x="63.623047" xlink:href="#DejaVuSans-46"/>
       <use x="95.410156" xlink:href="#DejaVuSans-50"/>
       <use x="159.033203" xlink:href="#DejaVuSans-53"/>
      </g>
     </g>
    </g>
    <g id="ytick_3">
     <g id="line2d_11">
      <g>
       <use style="stroke:#000000;stroke-width:0.8;" x="144" xlink:href="#me464796063" y="392.831901"/>
      </g>
     </g>
     <g id="text_11">
      <!-- 0.50 -->
      <g transform="translate(114.734375 396.631119)scale(0.1 -0.1)">
       <use xlink:href="#DejaVuSans-48"/>
       <use x="63.623047" xlink:href="#DejaVuSans-46"/>
       <use x="95.410156" xlink:href="#DejaVuSans-53"/>
       <use x="159.033203" xlink:href="#DejaVuSans-48"/>
      </g>
     </g>
    </g>
    <g id="ytick_4">
     <g id="line2d_12">
      <g>
       <use style="stroke:#000000;stroke-width:0.8;" x="144" xlink:href="#me464796063" y="342.084451"/>
      </g>
     </g>
     <g id="text_12">
      <!-- 0.75 -->
      <defs>
       <path d="M 8.203125 72.90625 
L 55.078125 72.90625 
L 55.078125 68.703125 
L 28.609375 0 
L 18.3125 0 
L 43.21875 64.59375 
L 8.203125 64.59375 
z
" id="DejaVuSans-55"/>
      </defs>
      <g transform="translate(114.734375 345.88367)scale(0.1 -0.1)">
       <use xlink:href="#DejaVuSans-48"/>
       <use x="63.623047" xlink:href="#DejaVuSans-46"/>
       <use x="95.410156" xlink:href="#DejaVuSans-55"/>
       <use x="159.033203" xlink:href="#DejaVuSans-53"/>
      </g>
     </g>
    </g>
    <g id="ytick_5">
     <g id="line2d_13">
      <g>
       <use style="stroke:#000000;stroke-width:0.8;" x="144" xlink:href="#me464796063" y="291.337001"/>
      </g>
     </g>
     <g id="text_13">
      <!-- 1.00 -->
      <g transform="translate(114.734375 295.13622)scale(0.1 -0.1)">
       <use xlink:href="#DejaVuSans-49"/>
       <use x="63.623047" xlink:href="#DejaVuSans-46"/>
       <use x="95.410156" xlink:href="#DejaVuSans-48"/>
       <use x="159.033203" xlink:href="#DejaVuSans-48"/>
      </g>
     </g>
    </g>
    <g id="ytick_6">
     <g id="line2d_14">
      <g>
       <use style="stroke:#000000;stroke-width:0.8;" x="144" xlink:href="#me464796063" y="240.589552"/>
      </g>
     </g>
     <g id="text_14">
      <!-- 1.25 -->
      <g transform="translate(114.734375 244.38877)scale(0.1 -0.1)">
       <use xlink:href="#DejaVuSans-49"/>
       <use x="63.623047" xlink:href="#DejaVuSans-46"/>
       <use x="95.410156" xlink:href="#DejaVuSans-50"/>
       <use x="159.033203" xlink:href="#DejaVuSans-53"/>
      </g>
     </g>
    </g>
    <g id="ytick_7">
     <g id="line2d_15">
      <g>
       <use style="stroke:#000000;stroke-width:0.8;" x="144" xlink:href="#me464796063" y="189.842102"/>
      </g>
     </g>
     <g id="text_15">
      <!-- 1.50 -->
      <g transform="translate(114.734375 193.641321)scale(0.1 -0.1)">
       <use xlink:href="#DejaVuSans-49"/>
       <use x="63.623047" xlink:href="#DejaVuSans-46"/>
       <use x="95.410156" xlink:href="#DejaVuSans-53"/>
       <use x="159.033203" xlink:href="#DejaVuSans-48"/>
      </g>
     </g>
    </g>
    <g id="ytick_8">
     <g id="line2d_16">
      <g>
       <use style="stroke:#000000;stroke-width:0.8;" x="144" xlink:href="#me464796063" y="139.094652"/>
      </g>
     </g>
     <g id="text_16">
      <!-- 1.75 -->
      <g transform="translate(114.734375 142.893871)scale(0.1 -0.1)">
       <use xlink:href="#DejaVuSans-49"/>
       <use x="63.623047" xlink:href="#DejaVuSans-46"/>
       <use x="95.410156" xlink:href="#DejaVuSans-55"/>
       <use x="159.033203" xlink:href="#DejaVuSans-53"/>
      </g>
     </g>
    </g>
    <g id="ytick_9">
     <g id="line2d_17">
      <g>
       <use style="stroke:#000000;stroke-width:0.8;" x="144" xlink:href="#me464796063" y="88.347203"/>
      </g>
     </g>
     <g id="text_17">
      <!-- 2.00 -->
      <g transform="translate(114.734375 92.146421)scale(0.1 -0.1)">
       <use xlink:href="#DejaVuSans-50"/>
       <use x="63.623047" xlink:href="#DejaVuSans-46"/>
       <use x="95.410156" xlink:href="#DejaVuSans-48"/>
       <use x="159.033203" xlink:href="#DejaVuSans-48"/>
      </g>
     </g>
    </g>
   </g>
   <g id="line2d_18">
    <path clip-path="url(#p37cfae4e29)" d="M 184.581818 494.326792 
L 302.930235 494.215792 
L 317.865837 493.977224 
L 327.200589 493.618838 
L 334.100188 493.142302 
L 339.619867 492.547722 
L 344.246657 491.834603 
L 348.305245 490.988275 
L 351.876802 490.021037 
L 355.123672 488.914456 
L 358.127027 487.655191 
L 360.886867 486.259177 
L 363.484363 484.699884 
L 366.000687 482.926758 
L 368.354668 481.000906 
L 370.708649 478.783199 
L 372.981458 476.332193 
L 375.254267 473.543548 
L 377.445905 470.503264 
L 379.637542 467.087777 
L 381.829179 463.268275 
L 384.101988 458.852392 
L 386.374797 453.948744 
L 388.728778 448.336394 
L 391.163931 441.948933 
L 393.761427 434.488934 
L 396.521267 425.863921 
L 399.605793 415.459162 
L 403.258522 402.307934 
L 409.671091 378.182696 
L 414.379052 360.899227 
L 417.625923 349.801498 
L 420.385762 341.132176 
L 422.902087 333.941904 
L 425.256067 327.876515 
L 427.447705 322.814971 
L 429.639342 318.309656 
L 431.749808 314.47607 
L 433.860273 311.108345 
L 435.889567 308.27672 
L 437.918861 305.808923 
L 440.029327 303.590249 
L 442.139792 301.687233 
L 444.33143 300.004544 
L 446.604239 298.53368 
L 449.039391 297.222535 
L 451.636887 296.077757 
L 454.477899 295.072626 
L 457.643597 294.196756 
L 461.215154 293.449089 
L 465.273742 292.831417 
L 470.144047 292.322171 
L 476.231929 291.921296 
L 484.267932 291.629733 
L 496.119008 291.442467 
L 518.278897 291.352609 
L 612.681646 291.337006 
L 755.462761 291.295354 
L 755.543933 291.224526 
L 755.625104 291.390231 
L 755.706276 291.339183 
L 756.112135 291.226102 
L 756.517994 291.362561 
L 756.599165 291.421358 
L 756.680337 291.241814 
L 756.761509 291.320696 
L 756.842681 291.41071 
L 756.923852 291.257535 
L 757.005024 291.368483 
L 757.086196 291.232952 
L 757.167368 291.365407 
L 757.248539 291.248047 
L 757.329711 291.402593 
L 757.492055 291.213924 
L 757.573226 291.401791 
L 757.654398 291.3313 
L 757.816742 291.217522 
L 757.897913 291.451271 
L 757.979085 291.419611 
L 758.384944 291.407569 
L 758.547287 291.473607 
L 758.628459 291.227606 
L 758.709631 291.285004 
L 758.871974 291.432442 
L 758.953146 291.219636 
L 759.11549 291.430042 
L 759.196661 291.242956 
L 759.277833 291.375008 
L 759.359005 291.204995 
L 759.440177 291.358759 
L 759.521348 291.206337 
L 759.60252 291.382399 
L 759.683692 291.2481 
L 759.764864 291.447058 
L 759.927207 291.224175 
L 760.008379 291.457467 
L 760.089551 291.369701 
L 760.251894 291.220633 
L 760.333066 291.501047 
L 760.414238 291.451568 
L 760.820097 291.346589 
L 761.225955 291.491583 
L 761.307127 291.180759 
L 761.388299 291.249569 
L 761.631814 291.522565 
L 761.712986 291.251648 
L 761.875329 291.508593 
L 761.956501 291.262067 
L 762.037673 291.417622 
L 762.118845 291.187072 
L 762.200016 291.364408 
L 762.281188 291.150332 
L 762.36236 291.350032 
L 762.443532 291.152941 
L 762.524703 291.375601 
L 762.605875 291.196017 
L 762.687047 291.442244 
L 762.84939 291.126898 
L 762.930562 291.408154 
L 763.092906 291.146349 
L 763.174077 291.46401 
L 763.255249 291.356832 
L 763.417593 291.168121 
L 763.498764 291.535491 
L 763.579936 291.466245 
L 763.985795 291.258176 
L 764.391654 291.292718 
L 764.797512 291.58742 
L 764.878684 291.173834 
L 764.959856 291.273348 
L 765.122199 291.506808 
L 765.203371 291.121358 
L 765.284543 291.263861 
L 765.446887 291.585122 
L 765.528058 291.229741 
L 765.60923 291.417593 
L 765.690402 291.076106 
L 765.852745 291.50816 
L 765.933917 291.190317 
L 766.015089 291.435411 
L 766.096261 291.132666 
L 766.177432 291.400933 
L 766.258604 291.113774 
L 766.339776 291.405818 
L 766.420948 291.134745 
L 766.502119 291.451184 
L 766.583291 291.196709 
L 766.664463 291.538172 
L 766.826806 291.070132 
L 766.907978 291.448241 
L 766.98915 291.235452 
L 767.070322 291.640187 
L 767.313837 291.079082 
L 767.395009 291.534731 
L 767.47618 291.374564 
L 767.638524 291.07762 
L 767.719696 291.586748 
L 767.800867 291.462856 
L 768.125554 291.05117 
L 768.206726 291.643208 
L 768.287898 291.575498 
L 768.693757 291.375362 
L 769.099615 291.418263 
L 769.424302 291.639345 
L 769.505474 290.968591 
L 769.586646 291.056886 
L 769.992505 291.670625 
L 770.073676 291.037919 
L 770.154848 291.20289 
L 770.317192 291.570051 
L 770.398363 290.959102 
L 770.479535 291.168762 
L 770.641879 291.627203 
L 770.72305 291.039757 
L 770.885394 291.566905 
L 770.966566 290.996792 
L 771.128909 291.595358 
L 771.210081 291.043577 
L 771.372425 291.716355 
L 771.453596 291.183941 
L 771.534768 291.551283 
L 771.61594 291.030272 
L 771.697112 291.421836 
L 771.778283 290.912655 
L 771.940627 291.761338 
L 772.021799 291.273989 
L 772.10297 291.732092 
L 772.184142 291.257732 
L 772.265314 291.742293 
L 772.346486 291.281384 
L 772.427657 291.793059 
L 772.590001 290.902807 
L 772.671173 291.452957 
L 772.752344 291.024296 
L 772.833516 291.603207 
L 772.914688 291.189653 
L 772.99586 291.798026 
L 773.158203 291.00656 
L 773.239375 291.656848 
L 773.401718 290.907202 
L 773.48289 291.60091 
L 773.645234 290.895215 
L 773.726405 291.633893 
L 773.888749 290.974352 
L 773.969921 291.759597 
L 774.213436 290.851526 
L 774.294608 291.698778 
L 774.375779 291.42162 
L 774.538123 290.885722 
L 774.619295 291.79787 
L 774.700466 291.553963 
L 774.943982 290.862073 
L 775.025153 291.857462 
L 775.106325 291.655971 
L 775.512184 290.758167 
L 775.593356 291.874612 
L 775.674527 291.734562 
L 776.24273 290.985676 
L 776.72976 290.688967 
L 777.135619 290.706849 
L 777.541478 290.984427 
L 777.947337 291.540179 
L 778.190852 292.01521 
L 778.272024 290.593918 
L 778.353195 290.778107 
L 778.840226 292.154705 
L 778.921398 290.734393 
L 779.002569 291.012625 
L 779.246085 291.931799 
L 779.327256 290.509921 
L 779.408428 290.84744 
L 779.651943 291.949572 
L 779.733115 290.527819 
L 779.814287 290.928495 
L 780.057802 292.225456 
L 780.138974 290.805641 
L 780.220146 291.273545 
L 780.382489 292.259421 
L 780.463661 290.839845 
L 780.544833 291.361882 
L 780.626004 291.901296 
L 780.707176 290.479204 
L 780.950691 292.216025 
L 781.031863 290.796144 
L 781.194207 292.054395 
L 781.275378 290.633378 
L 781.437722 291.976948 
L 781.518894 290.555387 
L 781.681237 291.98733 
L 781.762409 290.565842 
L 781.924752 292.089304 
L 782.005924 290.668533 
L 782.168268 292.286755 
L 782.249439 290.86737 
L 782.330611 291.714557 
L 782.411783 290.291153 
L 782.574127 292.063994 
L 782.655298 290.643045 
L 782.817642 292.519535 
L 782.898814 291.101786 
L 782.979985 292.081756 
L 783.061157 290.660932 
L 783.142329 291.671753 
L 783.223501 290.248048 
L 783.385844 292.357459 
L 783.467016 290.938572 
L 783.548188 292.038322 
L 783.629359 290.617193 
L 783.710531 291.750338 
L 783.791703 290.327185 
L 783.872875 291.494449 
L 783.954046 290.069499 
L 784.11639 292.500709 
L 784.197562 291.082827 
L 784.278733 292.348035 
L 784.359905 290.929082 
L 784.441077 292.231181 
L 784.522249 290.811406 
L 784.60342 292.151186 
L 784.684592 290.73085 
L 784.765764 292.109114 
L 784.846936 290.688481 
L 784.928107 292.106048 
L 785.009279 290.685395 
L 785.090451 292.143099 
L 785.171623 290.722705 
L 785.252794 292.221397 
L 785.333966 290.801554 
L 785.415138 292.342099 
L 785.49631 290.923103 
L 785.577481 292.506384 
L 785.658653 291.088542 
L 785.739825 292.715458 
L 785.902168 289.872762 
L 785.98334 291.55597 
L 786.064512 290.131452 
L 786.145684 291.860463 
L 786.226855 290.438083 
L 786.308027 292.213854 
L 786.389199 290.793957 
L 786.470371 292.617462 
L 786.632714 289.773385 
L 786.713886 291.65877 
L 786.795058 290.234974 
L 786.876229 292.170448 
L 786.957401 290.750247 
L 787.038573 292.736847 
L 787.200916 289.894453 
L 787.282088 291.947559 
L 787.36326 290.525792 
L 787.444432 292.632533 
L 787.606775 289.788668 
L 787.687947 291.965331 
L 787.769119 290.543689 
L 787.85029 292.776608 
L 788.012634 289.934775 
L 788.093806 292.241193 
L 788.174977 290.821489 
L 788.256149 293.186903 
L 788.418493 290.350855 
L 788.499665 292.793511 
L 788.662008 289.951916 
L 788.74318 292.474026 
L 788.905523 289.627926 
L 788.986695 292.231764 
L 789.149039 289.382248 
L 789.23021 292.070146 
L 789.311382 290.64924 
L 789.392554 293.404238 
L 789.554897 290.571255 
L 789.636069 293.414547 
L 789.798413 290.581709 
L 789.879584 293.515803 
L 790.1231 289.253751 
L 790.204271 292.302488 
L 790.366615 289.453969 
L 790.447787 292.599398 
L 790.61013 289.755066 
L 790.691302 292.999916 
L 790.853645 290.161232 
L 790.934817 293.508308 
L 791.178332 289.246097 
L 791.259504 292.722528 
L 791.421848 289.879932 
L 791.503019 293.46518 
L 791.746535 289.202054 
L 791.827706 292.925143 
L 791.99005 290.085404 
L 792.071222 293.924305 
L 792.152393 292.516425 
L 792.314737 289.670923 
L 792.395909 293.656679 
L 792.47708 292.246918 
L 792.639424 289.397617 
L 792.720596 293.535472 
L 792.801767 292.12486 
L 792.964111 289.273838 
L 793.045283 293.569218 
L 793.126454 292.158843 
L 793.288798 289.308299 
L 793.36997 293.766814 
L 793.451141 292.357827 
L 793.613485 289.510089 
L 793.694657 294.137539 
L 793.775828 292.731157 
L 794.019344 288.452452 
L 794.100516 293.288575 
L 794.181687 291.876229 
L 794.344031 289.0217 
L 794.425203 294.040235 
L 794.506374 292.633169 
L 794.74989 288.352384 
L 794.831061 293.596374 
L 794.912233 292.18619 
L 795.074577 289.336032 
L 795.155748 294.776948 
L 795.23692 293.375057 
L 795.480435 289.110018 
L 795.561607 294.794471 
L 795.642779 293.392704 
L 795.967466 287.686464 
L 796.048638 293.66662 
L 796.129809 292.25693 
L 796.373325 287.968159 
L 796.454496 294.215042 
L 796.535668 292.809204 
L 796.779183 288.532155 
L 796.860355 295.057179 
L 796.941527 293.657257 
L 797.266214 287.95853 
L 797.347386 294.821462 
L 797.428557 293.419884 
L 797.753244 287.714416 
L 797.834416 294.932239 
L 797.915588 293.53144 
L 798.240275 287.82914 
L 798.321447 295.419673 
L 798.402618 294.022298 
L 798.808477 286.886784 
L 798.889649 294.924797 
L 798.970821 293.523946 
L 799.295508 287.821433 
L 799.376679 296.273351 
L 799.457851 294.881973 
L 799.944882 286.326018 
L 800.026054 295.33786 
L 800.107225 293.93991 
L 800.513084 286.801461 
L 800.594256 296.34266 
L 800.675428 294.95177 
L 801.162458 286.398808 
L 801.24363 296.570768 
L 801.324802 295.18148 
L 801.811832 286.638372 
L 801.893004 297.482101 
L 801.974176 296.099215 
L 802.542378 286.143136 
L 802.62355 297.783479 
L 802.704721 296.402711 
L 803.354095 285.001569 
L 803.435267 297.584058 
L 803.516439 296.201888 
L 804.165813 284.789179 
L 804.246985 298.389242 
L 804.328156 297.012729 
L 805.058702 284.180695 
L 805.139874 298.983012 
L 805.221046 297.610671 
L 806.032763 283.345665 
L 806.113935 299.568745 
L 806.195107 298.200519 
L 807.087996 282.500533 
L 807.169168 300.404616 
L 807.25034 299.042262 
L 808.224401 281.927909 
L 808.305572 301.824856 
L 808.386744 300.47248 
L 809.523149 280.510603 
L 809.60432 302.932745 
L 809.685492 301.588152 
L 810.98424 278.743729 
L 811.065412 304.366401 
L 811.146584 303.031879 
L 812.688847 275.817271 
L 812.770019 305.717129 
L 812.851191 304.392097 
L 814.393454 277.371 
L 814.555797 274.311949 
L 814.636969 309.693039 
L 814.718141 308.395939 
L 816.260404 281.944449 
L 816.909778 269.710459 
L 816.99095 313.371337 
L 817.072122 312.100077 
L 818.614385 286.175557 
L 819.831961 263.128578 
L 819.913133 319.709963 
L 819.994305 318.483234 
L 821.536568 293.466815 
L 823.078832 264.891431 
L 823.728206 251.675126 
L 823.809377 331.422556 
L 823.890549 330.278111 
L 825.432812 306.939693 
L 826.975076 280.28103 
L 828.517339 249.829768 
L 829.653744 224.653029 
L 829.734915 358.54265 
L 829.816087 357.588731 
L 831.35835 338.135663 
L 832.900614 315.915101 
L 834.442877 290.533327 
L 835.98514 261.540609 
L 837.527404 228.423237 
L 839.069667 190.594415 
L 840.61193 147.383869 
L 842.154194 98.025967 
L 842.397709 89.6148 
L 842.560052 494.3268 
L 996.218182 494.3268 
L 996.218182 494.3268 
" style="fill:none;stroke:#1f77b4;stroke-linecap:square;stroke-width:1.5;"/>
   </g>
   <g id="patch_3">
    <path d="M 144 514.5624 
L 144 69.3792 
" style="fill:none;stroke:#000000;stroke-linecap:square;stroke-linejoin:miter;stroke-width:0.8;"/>
   </g>
   <g id="patch_4">
    <path d="M 1036.8 514.5624 
L 1036.8 69.3792 
" style="fill:none;stroke:#000000;stroke-linecap:square;stroke-linejoin:miter;stroke-width:0.8;"/>
   </g>
   <g id="patch_5">
    <path d="M 144 514.5624 
L 1036.8 514.5624 
" style="fill:none;stroke:#000000;stroke-linecap:square;stroke-linejoin:miter;stroke-width:0.8;"/>
   </g>
   <g id="patch_6">
    <path d="M 144 69.3792 
L 1036.8 69.3792 
" style="fill:none;stroke:#000000;stroke-linecap:square;stroke-linejoin:miter;stroke-width:0.8;"/>
   </g>
  </g>
 </g>
 <defs>
  <clipPath id="p37cfae4e29">
   <rect height="445.1832" width="892.8" x="144" y="69.3792"/>
  </clipPath>
 </defs>
</svg>
