<?xml version="1.0" encoding="utf-8" standalone="no"?>
<!DOCTYPE svg PUBLIC "-//W3C//DTD SVG 1.1//EN"
  "http://www.w3.org/Graphics/SVG/1.1/DTD/svg11.dtd">
<!-- Created with matplotlib (https://matplotlib.org/) -->
<svg height="578.16pt" version="1.1" viewBox="0 0 1152 578.16" width="1152pt" xmlns="http://www.w3.org/2000/svg" xmlns:xlink="http://www.w3.org/1999/xlink">
 <defs>
  <style type="text/css">
*{stroke-linecap:butt;stroke-linejoin:round;}
  </style>
 </defs>
 <g id="figure_1">
  <g id="patch_1">
   <path d="M 0 578.16 
L 1152 578.16 
L 1152 0 
L 0 0 
z
" style="fill:#ffffff;"/>
  </g>
  <g id="axes_1">
   <g id="patch_2">
    <path d="M 144 514.5624 
L 1036.8 514.5624 
L 1036.8 69.3792 
L 144 69.3792 
z
" style="fill:#ffffff;"/>
   </g>
   <g id="matplotlib.axis_1">
    <g id="xtick_1">
     <g id="line2d_1">
      <defs>
       <path d="M 0 0 
L 0 3.5 
" id="m9e12ac9dca" style="stroke:#000000;stroke-width:0.8;"/>
      </defs>
      <g>
       <use style="stroke:#000000;stroke-width:0.8;" x="202.425057" xlink:href="#m9e12ac9dca" y="514.5624"/>
      </g>
     </g>
     <g id="text_1">
      <!-- 28 -->
      <defs>
       <path d="M 19.1875 8.296875 
L 53.609375 8.296875 
L 53.609375 0 
L 7.328125 0 
L 7.328125 8.296875 
Q 12.9375 14.109375 22.625 23.890625 
Q 32.328125 33.6875 34.8125 36.53125 
Q 39.546875 41.84375 41.421875 45.53125 
Q 43.3125 49.21875 43.3125 52.78125 
Q 43.3125 58.59375 39.234375 62.25 
Q 35.15625 65.921875 28.609375 65.921875 
Q 23.96875 65.921875 18.8125 64.3125 
Q 13.671875 62.703125 7.8125 59.421875 
L 7.8125 69.390625 
Q 13.765625 71.78125 18.9375 73 
Q 24.125 74.21875 28.421875 74.21875 
Q 39.75 74.21875 46.484375 68.546875 
Q 53.21875 62.890625 53.21875 53.421875 
Q 53.21875 48.921875 51.53125 44.890625 
Q 49.859375 40.875 45.40625 35.40625 
Q 44.1875 33.984375 37.640625 27.21875 
Q 31.109375 20.453125 19.1875 8.296875 
z
" id="DejaVuSans-50"/>
       <path d="M 31.78125 34.625 
Q 24.75 34.625 20.71875 30.859375 
Q 16.703125 27.09375 16.703125 20.515625 
Q 16.703125 13.921875 20.71875 10.15625 
Q 24.75 6.390625 31.78125 6.390625 
Q 38.8125 6.390625 42.859375 10.171875 
Q 46.921875 13.96875 46.921875 20.515625 
Q 46.921875 27.09375 42.890625 30.859375 
Q 38.875 34.625 31.78125 34.625 
z
M 21.921875 38.8125 
Q 15.578125 40.375 12.03125 44.71875 
Q 8.5 49.078125 8.5 55.328125 
Q 8.5 64.0625 14.71875 69.140625 
Q 20.953125 74.21875 31.78125 74.21875 
Q 42.671875 74.21875 48.875 69.140625 
Q 55.078125 64.0625 55.078125 55.328125 
Q 55.078125 49.078125 51.53125 44.71875 
Q 48 40.375 41.703125 38.8125 
Q 48.828125 37.15625 52.796875 32.3125 
Q 56.78125 27.484375 56.78125 20.515625 
Q 56.78125 9.90625 50.3125 4.234375 
Q 43.84375 -1.421875 31.78125 -1.421875 
Q 19.734375 -1.421875 13.25 4.234375 
Q 6.78125 9.90625 6.78125 20.515625 
Q 6.78125 27.484375 10.78125 32.3125 
Q 14.796875 37.15625 21.921875 38.8125 
z
M 18.3125 54.390625 
Q 18.3125 48.734375 21.84375 45.5625 
Q 25.390625 42.390625 31.78125 42.390625 
Q 38.140625 42.390625 41.71875 45.5625 
Q 45.3125 48.734375 45.3125 54.390625 
Q 45.3125 60.0625 41.71875 63.234375 
Q 38.140625 66.40625 31.78125 66.40625 
Q 25.390625 66.40625 21.84375 63.234375 
Q 18.3125 60.0625 18.3125 54.390625 
z
" id="DejaVuSans-56"/>
      </defs>
      <g transform="translate(196.062557 529.160837)scale(0.1 -0.1)">
       <use xlink:href="#DejaVuSans-50"/>
       <use x="63.623047" xlink:href="#DejaVuSans-56"/>
      </g>
     </g>
    </g>
    <g id="xtick_2">
     <g id="line2d_2">
      <g>
       <use style="stroke:#000000;stroke-width:0.8;" x="371.572804" xlink:href="#m9e12ac9dca" y="514.5624"/>
      </g>
     </g>
     <g id="text_2">
      <!-- 30 -->
      <defs>
       <path d="M 40.578125 39.3125 
Q 47.65625 37.796875 51.625 33 
Q 55.609375 28.21875 55.609375 21.1875 
Q 55.609375 10.40625 48.1875 4.484375 
Q 40.765625 -1.421875 27.09375 -1.421875 
Q 22.515625 -1.421875 17.65625 -0.515625 
Q 12.796875 0.390625 7.625 2.203125 
L 7.625 11.71875 
Q 11.71875 9.328125 16.59375 8.109375 
Q 21.484375 6.890625 26.8125 6.890625 
Q 36.078125 6.890625 40.9375 10.546875 
Q 45.796875 14.203125 45.796875 21.1875 
Q 45.796875 27.640625 41.28125 31.265625 
Q 36.765625 34.90625 28.71875 34.90625 
L 20.21875 34.90625 
L 20.21875 43.015625 
L 29.109375 43.015625 
Q 36.375 43.015625 40.234375 45.921875 
Q 44.09375 48.828125 44.09375 54.296875 
Q 44.09375 59.90625 40.109375 62.90625 
Q 36.140625 65.921875 28.71875 65.921875 
Q 24.65625 65.921875 20.015625 65.03125 
Q 15.375 64.15625 9.8125 62.3125 
L 9.8125 71.09375 
Q 15.4375 72.65625 20.34375 73.4375 
Q 25.25 74.21875 29.59375 74.21875 
Q 40.828125 74.21875 47.359375 69.109375 
Q 53.90625 64.015625 53.90625 55.328125 
Q 53.90625 49.265625 50.4375 45.09375 
Q 46.96875 40.921875 40.578125 39.3125 
z
" id="DejaVuSans-51"/>
       <path d="M 31.78125 66.40625 
Q 24.171875 66.40625 20.328125 58.90625 
Q 16.5 51.421875 16.5 36.375 
Q 16.5 21.390625 20.328125 13.890625 
Q 24.171875 6.390625 31.78125 6.390625 
Q 39.453125 6.390625 43.28125 13.890625 
Q 47.125 21.390625 47.125 36.375 
Q 47.125 51.421875 43.28125 58.90625 
Q 39.453125 66.40625 31.78125 66.40625 
z
M 31.78125 74.21875 
Q 44.046875 74.21875 50.515625 64.515625 
Q 56.984375 54.828125 56.984375 36.375 
Q 56.984375 17.96875 50.515625 8.265625 
Q 44.046875 -1.421875 31.78125 -1.421875 
Q 19.53125 -1.421875 13.0625 8.265625 
Q 6.59375 17.96875 6.59375 36.375 
Q 6.59375 54.828125 13.0625 64.515625 
Q 19.53125 74.21875 31.78125 74.21875 
z
" id="DejaVuSans-48"/>
      </defs>
      <g transform="translate(365.210304 529.160837)scale(0.1 -0.1)">
       <use xlink:href="#DejaVuSans-51"/>
       <use x="63.623047" xlink:href="#DejaVuSans-48"/>
      </g>
     </g>
    </g>
    <g id="xtick_3">
     <g id="line2d_3">
      <g>
       <use style="stroke:#000000;stroke-width:0.8;" x="540.72055" xlink:href="#m9e12ac9dca" y="514.5624"/>
      </g>
     </g>
     <g id="text_3">
      <!-- 32 -->
      <g transform="translate(534.35805 529.160837)scale(0.1 -0.1)">
       <use xlink:href="#DejaVuSans-51"/>
       <use x="63.623047" xlink:href="#DejaVuSans-50"/>
      </g>
     </g>
    </g>
    <g id="xtick_4">
     <g id="line2d_4">
      <g>
       <use style="stroke:#000000;stroke-width:0.8;" x="709.868296" xlink:href="#m9e12ac9dca" y="514.5624"/>
      </g>
     </g>
     <g id="text_4">
      <!-- 34 -->
      <defs>
       <path d="M 37.796875 64.3125 
L 12.890625 25.390625 
L 37.796875 25.390625 
z
M 35.203125 72.90625 
L 47.609375 72.90625 
L 47.609375 25.390625 
L 58.015625 25.390625 
L 58.015625 17.1875 
L 47.609375 17.1875 
L 47.609375 0 
L 37.796875 0 
L 37.796875 17.1875 
L 4.890625 17.1875 
L 4.890625 26.703125 
z
" id="DejaVuSans-52"/>
      </defs>
      <g transform="translate(703.505796 529.160837)scale(0.1 -0.1)">
       <use xlink:href="#DejaVuSans-51"/>
       <use x="63.623047" xlink:href="#DejaVuSans-52"/>
      </g>
     </g>
    </g>
    <g id="xtick_5">
     <g id="line2d_5">
      <g>
       <use style="stroke:#000000;stroke-width:0.8;" x="879.016043" xlink:href="#m9e12ac9dca" y="514.5624"/>
      </g>
     </g>
     <g id="text_5">
      <!-- 36 -->
      <defs>
       <path d="M 33.015625 40.375 
Q 26.375 40.375 22.484375 35.828125 
Q 18.609375 31.296875 18.609375 23.390625 
Q 18.609375 15.53125 22.484375 10.953125 
Q 26.375 6.390625 33.015625 6.390625 
Q 39.65625 6.390625 43.53125 10.953125 
Q 47.40625 15.53125 47.40625 23.390625 
Q 47.40625 31.296875 43.53125 35.828125 
Q 39.65625 40.375 33.015625 40.375 
z
M 52.59375 71.296875 
L 52.59375 62.3125 
Q 48.875 64.0625 45.09375 64.984375 
Q 41.3125 65.921875 37.59375 65.921875 
Q 27.828125 65.921875 22.671875 59.328125 
Q 17.53125 52.734375 16.796875 39.40625 
Q 19.671875 43.65625 24.015625 45.921875 
Q 28.375 48.1875 33.59375 48.1875 
Q 44.578125 48.1875 50.953125 41.515625 
Q 57.328125 34.859375 57.328125 23.390625 
Q 57.328125 12.15625 50.6875 5.359375 
Q 44.046875 -1.421875 33.015625 -1.421875 
Q 20.359375 -1.421875 13.671875 8.265625 
Q 6.984375 17.96875 6.984375 36.375 
Q 6.984375 53.65625 15.1875 63.9375 
Q 23.390625 74.21875 37.203125 74.21875 
Q 40.921875 74.21875 44.703125 73.484375 
Q 48.484375 72.75 52.59375 71.296875 
z
" id="DejaVuSans-54"/>
      </defs>
      <g transform="translate(872.653543 529.160837)scale(0.1 -0.1)">
       <use xlink:href="#DejaVuSans-51"/>
       <use x="63.623047" xlink:href="#DejaVuSans-54"/>
      </g>
     </g>
    </g>
   </g>
   <g id="matplotlib.axis_2">
    <g id="ytick_1">
     <g id="line2d_6">
      <defs>
       <path d="M 0 0 
L -3.5 0 
" id="m454035422a" style="stroke:#000000;stroke-width:0.8;"/>
      </defs>
      <g>
       <use style="stroke:#000000;stroke-width:0.8;" x="144" xlink:href="#m454035422a" y="513.790809"/>
      </g>
     </g>
     <g id="text_6">
      <!-- 0.6 -->
      <defs>
       <path d="M 10.6875 12.40625 
L 21 12.40625 
L 21 0 
L 10.6875 0 
z
" id="DejaVuSans-46"/>
      </defs>
      <g transform="translate(121.096875 517.590027)scale(0.1 -0.1)">
       <use xlink:href="#DejaVuSans-48"/>
       <use x="63.623047" xlink:href="#DejaVuSans-46"/>
       <use x="95.410156" xlink:href="#DejaVuSans-54"/>
      </g>
     </g>
    </g>
    <g id="ytick_2">
     <g id="line2d_7">
      <g>
       <use style="stroke:#000000;stroke-width:0.8;" x="144" xlink:href="#m454035422a" y="450.878216"/>
      </g>
     </g>
     <g id="text_7">
      <!-- 0.8 -->
      <g transform="translate(121.096875 454.677435)scale(0.1 -0.1)">
       <use xlink:href="#DejaVuSans-48"/>
       <use x="63.623047" xlink:href="#DejaVuSans-46"/>
       <use x="95.410156" xlink:href="#DejaVuSans-56"/>
      </g>
     </g>
    </g>
    <g id="ytick_3">
     <g id="line2d_8">
      <g>
       <use style="stroke:#000000;stroke-width:0.8;" x="144" xlink:href="#m454035422a" y="387.965623"/>
      </g>
     </g>
     <g id="text_8">
      <!-- 1.0 -->
      <defs>
       <path d="M 12.40625 8.296875 
L 28.515625 8.296875 
L 28.515625 63.921875 
L 10.984375 60.40625 
L 10.984375 69.390625 
L 28.421875 72.90625 
L 38.28125 72.90625 
L 38.28125 8.296875 
L 54.390625 8.296875 
L 54.390625 0 
L 12.40625 0 
z
" id="DejaVuSans-49"/>
      </defs>
      <g transform="translate(121.096875 391.764842)scale(0.1 -0.1)">
       <use xlink:href="#DejaVuSans-49"/>
       <use x="63.623047" xlink:href="#DejaVuSans-46"/>
       <use x="95.410156" xlink:href="#DejaVuSans-48"/>
      </g>
     </g>
    </g>
    <g id="ytick_4">
     <g id="line2d_9">
      <g>
       <use style="stroke:#000000;stroke-width:0.8;" x="144" xlink:href="#m454035422a" y="325.053031"/>
      </g>
     </g>
     <g id="text_9">
      <!-- 1.2 -->
      <g transform="translate(121.096875 328.852249)scale(0.1 -0.1)">
       <use xlink:href="#DejaVuSans-49"/>
       <use x="63.623047" xlink:href="#DejaVuSans-46"/>
       <use x="95.410156" xlink:href="#DejaVuSans-50"/>
      </g>
     </g>
    </g>
    <g id="ytick_5">
     <g id="line2d_10">
      <g>
       <use style="stroke:#000000;stroke-width:0.8;" x="144" xlink:href="#m454035422a" y="262.140438"/>
      </g>
     </g>
     <g id="text_10">
      <!-- 1.4 -->
      <g transform="translate(121.096875 265.939657)scale(0.1 -0.1)">
       <use xlink:href="#DejaVuSans-49"/>
       <use x="63.623047" xlink:href="#DejaVuSans-46"/>
       <use x="95.410156" xlink:href="#DejaVuSans-52"/>
      </g>
     </g>
    </g>
    <g id="ytick_6">
     <g id="line2d_11">
      <g>
       <use style="stroke:#000000;stroke-width:0.8;" x="144" xlink:href="#m454035422a" y="199.227845"/>
      </g>
     </g>
     <g id="text_11">
      <!-- 1.6 -->
      <g transform="translate(121.096875 203.027064)scale(0.1 -0.1)">
       <use xlink:href="#DejaVuSans-49"/>
       <use x="63.623047" xlink:href="#DejaVuSans-46"/>
       <use x="95.410156" xlink:href="#DejaVuSans-54"/>
      </g>
     </g>
    </g>
    <g id="ytick_7">
     <g id="line2d_12">
      <g>
       <use style="stroke:#000000;stroke-width:0.8;" x="144" xlink:href="#m454035422a" y="136.315253"/>
      </g>
     </g>
     <g id="text_12">
      <!-- 1.8 -->
      <g transform="translate(121.096875 140.114471)scale(0.1 -0.1)">
       <use xlink:href="#DejaVuSans-49"/>
       <use x="63.623047" xlink:href="#DejaVuSans-46"/>
       <use x="95.410156" xlink:href="#DejaVuSans-56"/>
      </g>
     </g>
    </g>
    <g id="ytick_8">
     <g id="line2d_13">
      <g>
       <use style="stroke:#000000;stroke-width:0.8;" x="144" xlink:href="#m454035422a" y="73.40266"/>
      </g>
     </g>
     <g id="text_13">
      <!-- 2.0 -->
      <g transform="translate(121.096875 77.201879)scale(0.1 -0.1)">
       <use xlink:href="#DejaVuSans-50"/>
       <use x="63.623047" xlink:href="#DejaVuSans-46"/>
       <use x="95.410156" xlink:href="#DejaVuSans-48"/>
      </g>
     </g>
    </g>
   </g>
   <g id="line2d_14">
    <path clip-path="url(#pbc6f743e2e)" d="M 143.538838 387.986506 
L 146.49922 387.940406 
L 148.275449 387.973188 
L 153.012059 387.988304 
L 173.142654 387.988822 
L 174.326807 387.97399 
L 178.471341 387.928179 
L 185.576257 388.002414 
L 186.76041 387.932362 
L 187.944562 388.007985 
L 189.128715 387.975643 
L 190.312867 388.004917 
L 204.522699 387.932978 
L 205.706852 388.012804 
L 206.298928 387.918275 
L 210.443462 387.998793 
L 211.035539 387.914156 
L 212.811768 387.975509 
L 215.180073 387.969644 
L 216.956302 388.010773 
L 219.324607 387.960832 
L 221.100836 387.961225 
L 221.692912 387.90798 
L 222.877065 387.974684 
L 229.981981 387.97336 
L 230.574057 388.018082 
L 231.166134 387.937058 
L 231.75821 388.013315 
L 234.126515 387.898808 
L 241.823507 388.020029 
L 242.415584 387.917655 
L 243.00766 387.992592 
L 243.599736 387.919735 
L 244.191813 388.026906 
L 246.560118 387.947363 
L 249.520499 388.02362 
L 250.704652 387.879804 
L 251.296728 388.009751 
L 253.665034 387.964894 
L 254.849186 388.03575 
L 255.441263 387.906191 
L 256.033339 387.980737 
L 256.625415 387.880117 
L 257.217492 387.986696 
L 257.809568 387.915857 
L 258.401644 388.055358 
L 260.76995 387.985148 
L 261.954102 388.042778 
L 262.546178 387.889895 
L 263.730331 388.041535 
L 264.322407 387.93229 
L 264.914484 388.048517 
L 266.098636 387.90375 
L 266.690713 388.069152 
L 269.059018 388.023286 
L 269.651094 388.05049 
L 270.243171 387.868359 
L 271.427323 388.000004 
L 272.0194 387.860543 
L 272.611476 387.966282 
L 273.203552 387.855773 
L 273.795629 387.994139 
L 274.979781 387.847104 
L 275.571858 388.035265 
L 277.940163 387.985328 
L 279.124315 388.053529 
L 279.716392 387.859752 
L 280.900544 388.02176 
L 281.492621 387.870537 
L 282.084697 387.991803 
L 282.676773 387.869391 
L 283.26885 388.023527 
L 284.453002 387.852229 
L 285.045079 388.056434 
L 287.413384 387.955984 
L 289.781689 388.103445 
L 290.373766 387.894921 
L 291.557918 388.095427 
L 292.149994 387.929304 
L 292.742071 388.070252 
L 293.334147 387.932756 
L 293.926223 388.106878 
L 295.702452 387.824996 
L 296.294529 388.06607 
L 298.662834 387.961321 
L 301.031139 388.104229 
L 301.623216 387.853872 
L 302.807368 388.051397 
L 303.399445 387.842237 
L 303.991521 387.981356 
L 304.583597 387.799906 
L 305.175674 387.97186 
L 305.76775 387.818942 
L 306.359826 388.02463 
L 307.543979 387.791327 
L 308.136055 388.048111 
L 310.50436 387.818966 
L 312.872666 387.830427 
L 315.240971 388.096346 
L 315.833047 387.818116 
L 317.0172 388.079846 
L 317.609276 387.842479 
L 318.201353 388.014409 
L 318.793429 387.804383 
L 319.385505 388.009642 
L 319.977582 387.827775 
L 320.569658 388.067267 
L 321.75381 387.774897 
L 322.345887 388.066024 
L 324.122116 387.780472 
L 324.714192 388.142702 
L 327.082497 388.036258 
L 329.450803 388.177314 
L 330.042879 387.796098 
L 331.819108 388.113522 
L 332.411184 387.783748 
L 333.595337 388.109804 
L 334.187413 387.819885 
L 334.779489 388.02452 
L 335.371566 387.761059 
L 335.963642 387.999339 
L 336.555718 387.76314 
L 337.147795 388.035974 
L 337.739871 387.827857 
L 338.331947 388.136172 
L 339.5161 387.790781 
L 340.108176 388.152303 
L 341.884405 387.785294 
L 342.476482 388.219836 
L 344.844787 388.000577 
L 347.213092 388.022347 
L 348.989321 388.20517 
L 349.581397 387.723502 
L 351.949703 388.253182 
L 352.541779 387.833356 
L 353.725932 388.23153 
L 354.318008 387.849502 
L 354.910084 388.090557 
L 355.502161 387.733285 
L 356.094237 388.008093 
L 356.686313 387.676351 
L 357.27839 387.985816 
L 357.870466 387.680394 
L 358.462542 388.025439 
L 359.054619 387.747147 
L 359.646695 388.128713 
L 360.830848 387.640037 
L 361.422924 388.075885 
L 362.607077 387.67018 
L 363.199153 388.162442 
L 364.975382 387.703918 
L 365.567458 388.273213 
L 367.935763 387.928806 
L 370.304069 387.818277 
L 372.672374 387.955189 
L 375.040679 388.353684 
L 375.632756 387.71277 
L 377.408985 388.228764 
L 378.001061 387.631452 
L 379.77729 388.350124 
L 380.369366 387.799407 
L 380.961442 388.090512 
L 381.553519 387.561327 
L 382.737671 388.230859 
L 383.329748 387.738313 
L 383.921824 388.118124 
L 384.5139 387.648975 
L 385.105977 388.064695 
L 385.698053 387.619699 
L 386.290129 388.072265 
L 386.882206 387.652198 
L 387.474282 388.142567 
L 388.066358 387.748219 
L 388.658435 388.277367 
L 389.842587 387.552069 
L 390.434664 388.138006 
L 391.02674 387.808257 
L 391.618816 388.435455 
L 393.395045 387.565939 
L 393.987121 388.272035 
L 395.76335 387.563674 
L 396.355427 388.352644 
L 398.723732 387.662296 
L 399.315808 387.522685 
L 399.907885 388.440136 
L 402.27619 388.105408 
L 404.644495 388.004974 
L 407.012801 388.152412 
L 408.789029 388.43415 
L 409.381106 387.394717 
L 411.749411 388.047833 
L 412.933564 388.482622 
L 413.52564 387.502151 
L 415.301869 388.326768 
L 415.893945 387.380013 
L 417.670174 388.415334 
L 418.262251 387.504999 
L 419.446403 388.321894 
L 420.03848 387.438418 
L 421.222632 388.365986 
L 421.814709 387.510918 
L 422.998861 388.553488 
L 423.590937 387.728433 
L 424.183014 388.297684 
L 424.77509 387.4903 
L 425.367166 388.097087 
L 425.959243 387.308035 
L 427.143395 388.623196 
L 427.735472 387.867977 
L 428.327548 388.577875 
L 428.919624 387.842784 
L 429.511701 388.593683 
L 430.103777 387.879437 
L 430.695853 388.672353 
L 431.880006 387.292775 
L 432.472082 388.145314 
L 433.064159 387.48104 
L 433.656235 388.378149 
L 434.248311 387.737285 
L 434.840388 388.680051 
L 436.02454 387.453555 
L 436.616617 388.461274 
L 437.800769 387.299585 
L 438.392845 388.374589 
L 439.576998 387.281009 
L 440.169074 388.425701 
L 441.353227 387.403645 
L 441.945303 388.620499 
L 443.721532 387.213306 
L 444.313609 388.52625 
L 446.089838 387.266299 
L 446.681914 388.679808 
L 449.050219 387.229651 
L 449.642296 388.772155 
L 452.602677 387.323652 
L 453.194753 387.068633 
L 453.78683 388.798732 
L 456.155135 388.005967 
L 458.52344 387.421192 
L 460.891746 387.056859 
L 463.260051 386.925961 
L 465.628356 387.042049 
L 467.996661 387.419257 
L 470.364967 388.072322 
L 472.733272 389.016609 
L 473.325348 386.814105 
L 475.693654 388.074419 
L 477.469883 389.232777 
L 478.061959 387.031792 
L 480.430264 388.887351 
L 481.022341 386.683939 
L 483.390646 388.914893 
L 483.982722 386.711675 
L 486.351027 389.342416 
L 486.943104 387.142201 
L 488.719333 389.395051 
L 489.311409 387.195205 
L 490.495562 388.840082 
L 491.087638 386.636338 
L 492.863867 389.327802 
L 493.455943 387.127485 
L 494.640096 389.077332 
L 495.232172 386.875254 
L 496.416325 388.957315 
L 497.008401 386.754395 
L 498.192554 388.973404 
L 498.78463 386.770597 
L 499.968783 389.131429 
L 500.560859 386.929732 
L 501.745012 389.437408 
L 502.337088 387.23786 
L 502.929164 388.550702 
L 503.521241 386.344925 
L 504.705393 389.092207 
L 505.29747 386.890235 
L 506.481622 389.798136 
L 507.073699 387.601122 
L 507.665775 389.119732 
L 508.257851 386.917953 
L 508.849928 388.48437 
L 509.442004 386.278127 
L 510.626157 389.546975 
L 511.218233 387.348197 
L 511.810309 389.052424 
L 512.402385 386.850172 
L 512.994462 388.60615 
L 513.586538 386.400763 
L 514.178614 388.209612 
L 514.770691 386.001439 
L 515.954843 389.768961 
L 516.54692 387.571743 
L 517.138996 389.532371 
L 517.731072 387.333491 
L 518.323149 389.351288 
L 518.915225 387.151136 
L 519.507301 389.227324 
L 520.099378 387.026301 
L 520.691454 389.162126 
L 521.28353 386.960645 
L 521.875607 389.157376 
L 522.467683 386.955861 
L 523.059759 389.214792 
L 523.651836 387.01368 
L 524.243912 389.336126 
L 524.835988 387.135867 
L 525.428065 389.523171 
L 526.020141 387.324226 
L 526.612217 389.777756 
L 527.204293 387.580599 
L 527.79637 390.101747 
L 528.980522 385.696566 
L 529.572599 388.304948 
L 530.164675 386.097445 
L 530.756751 388.776805 
L 531.348828 386.572616 
L 531.940904 389.324437 
L 532.53298 387.124096 
L 533.125057 389.949888 
L 534.309209 385.542566 
L 534.901286 388.464252 
L 535.493362 386.257868 
L 536.085438 389.257173 
L 536.677515 387.056359 
L 537.269591 390.134893 
L 538.453744 385.73018 
L 539.04582 388.911774 
L 539.637896 386.708534 
L 540.229973 389.973242 
L 541.414125 385.56625 
L 542.006201 388.939314 
L 542.598278 386.736268 
L 543.190354 390.196509 
L 544.374507 385.792664 
L 544.966583 389.366804 
L 545.558659 387.16676 
L 546.150736 390.832322 
L 547.334888 386.437443 
L 547.926965 390.222702 
L 549.111117 385.819227 
L 549.703194 389.727613 
L 550.887346 385.317157 
L 551.479423 389.352191 
L 552.663575 384.936442 
L 553.255652 389.10174 
L 553.847728 386.899834 
L 554.439804 391.169115 
L 555.623957 386.778985 
L 556.216033 391.185091 
L 557.400186 386.795185 
L 557.992262 391.342001 
L 559.768491 384.737316 
L 560.360567 389.461788 
L 561.54472 385.047585 
L 562.136796 389.921895 
L 563.320949 385.514178 
L 563.913025 390.542558 
L 565.097178 386.143593 
L 565.689254 391.330386 
L 567.465483 384.725454 
L 568.05756 390.112704 
L 569.241712 385.707678 
L 569.833789 391.263553 
L 571.610017 384.657203 
L 572.202094 390.426686 
L 573.386246 386.026087 
L 573.978323 391.975036 
L 575.754552 385.383787 
L 576.346628 391.560309 
L 578.122857 384.960257 
L 578.714933 391.372482 
L 580.491162 384.768443 
L 581.083239 391.424775 
L 582.859468 384.821847 
L 583.451544 391.73098 
L 585.227773 385.13455 
L 585.819849 392.305475 
L 588.188154 383.495584 
L 588.780231 390.989878 
L 590.55646 384.377719 
L 591.148536 392.154687 
L 593.516841 383.340514 
L 594.108918 391.466858 
L 595.885147 384.864823 
L 596.477223 393.296333 
L 598.845528 384.514581 
L 599.437605 393.323488 
L 602.397986 382.308572 
L 602.990062 391.575715 
L 605.358368 382.7451 
L 605.950444 392.425576 
L 608.318749 383.619096 
L 608.910826 393.730593 
L 611.871207 382.730179 
L 612.463284 393.365314 
L 615.423665 382.351888 
L 616.015741 393.53698 
L 618.976123 382.529669 
L 619.568199 394.292332 
L 623.120657 381.069348 
L 623.712734 393.525448 
L 626.673115 382.517726 
L 627.265192 395.615233 
L 631.409726 380.200357 
L 632.001802 394.16555 
L 635.55426 380.937128 
L 636.146336 395.722638 
L 640.290871 380.313157 
L 640.882947 396.076125 
L 645.027481 380.684397 
L 645.619557 397.488371 
L 649.764092 382.167574 
L 650.356168 379.916954 
L 650.948244 397.955402 
L 655.092779 382.658062 
L 656.276931 378.147927 
L 656.869008 397.646369 
L 661.013542 382.333508 
L 662.197694 377.818796 
L 662.789771 398.894122 
L 666.934305 383.64393 
L 668.710534 376.875859 
L 669.30261 399.814257 
L 673.447145 384.61028 
L 675.81545 375.581856 
L 676.407526 400.721938 
L 680.55206 385.563549 
L 683.512442 374.272197 
L 684.104518 402.017244 
L 688.249052 386.923913 
L 691.80151 373.384832 
L 692.393587 404.218118 
L 696.538121 389.235327 
L 700.682655 373.500017 
L 701.274732 371.188505 
L 701.866808 405.934958 
L 706.011342 391.038395 
L 710.155876 375.393645 
L 711.932105 368.450469 
L 712.524182 408.156621 
L 716.668716 393.371642 
L 720.81325 377.844081 
L 724.365708 363.915486 
L 724.957784 410.249776 
L 729.102319 395.569927 
L 733.246853 380.152776 
L 737.391387 363.96129 
L 737.983463 361.582766 
L 738.57554 416.411041 
L 742.720074 402.040645 
L 746.864608 386.948489 
L 751.009142 371.098322 
L 755.153677 354.452072 
L 755.745753 422.111112 
L 759.890287 408.027005 
L 764.034821 393.235516 
L 768.179356 377.701118 
L 772.32389 361.386497 
L 776.468424 344.252465 
L 777.0605 431.933758 
L 781.205035 418.342998 
L 785.349569 404.069636 
L 789.494103 389.079386 
L 793.638637 373.336244 
L 797.783172 356.802395 
L 801.927706 339.438125 
L 804.888088 326.503633 
L 805.480164 450.084168 
L 809.624698 437.405022 
L 813.769232 424.089059 
L 817.913767 410.104295 
L 822.058301 395.417139 
L 826.202835 379.992314 
L 830.347369 363.792769 
L 834.491904 346.779595 
L 838.636438 328.911925 
L 842.780972 310.146842 
L 846.925506 290.439274 
L 848.109659 284.628864 
L 848.701735 492.110798 
L 853.438346 479.989974 
L 858.174956 467.170948 
L 862.319491 455.349993 
L 866.464025 442.935325 
L 870.608559 429.897125 
L 874.753093 416.204074 
L 878.897628 401.823283 
L 883.042162 386.720209 
L 887.186696 370.858576 
L 891.33123 354.200285 
L 895.475764 336.705323 
L 899.620299 318.331668 
L 903.764833 299.035186 
L 907.909367 278.76953 
L 912.053901 257.48602 
L 916.198436 235.133536 
L 920.34297 211.658387 
L 924.487504 187.004187 
L 928.632038 161.111718 
L 932.776573 133.918786 
L 936.921107 105.360076 
L 941.065641 75.366991 
L 941.54125 579.16 
L 941.54125 579.16 
" style="fill:none;stroke:#1f77b4;stroke-linecap:square;stroke-width:1.5;"/>
   </g>
   <g id="patch_3">
    <path d="M 144 514.5624 
L 144 69.3792 
" style="fill:none;stroke:#000000;stroke-linecap:square;stroke-linejoin:miter;stroke-width:0.8;"/>
   </g>
   <g id="patch_4">
    <path d="M 1036.8 514.5624 
L 1036.8 69.3792 
" style="fill:none;stroke:#000000;stroke-linecap:square;stroke-linejoin:miter;stroke-width:0.8;"/>
   </g>
   <g id="patch_5">
    <path d="M 144 514.5624 
L 1036.8 514.5624 
" style="fill:none;stroke:#000000;stroke-linecap:square;stroke-linejoin:miter;stroke-width:0.8;"/>
   </g>
   <g id="patch_6">
    <path d="M 144 69.3792 
L 1036.8 69.3792 
" style="fill:none;stroke:#000000;stroke-linecap:square;stroke-linejoin:miter;stroke-width:0.8;"/>
   </g>
  </g>
 </g>
 <defs>
  <clipPath id="pbc6f743e2e">
   <rect height="445.1832" width="892.8" x="144" y="69.3792"/>
  </clipPath>
 </defs>
</svg>
